# xmcd
#
# Track frame offsets:
#	150
#	16405
#	36858
#	67580
#	91622
#	123307
#	147642
#	178852
#	207357
#	228252
#
# Disc length: 3253
#
# Revision: 2
# Processed by: cddbd v1.5.1PL0 Copyright (c) Steve Scherf et al.
# Submitted via: CDmax 2.0
# Normalized: r1:DSETVAR1,TDELIM( - )
#
DISCID=800cb30a
DTITLE=Various Artist - Songs for Shabfas - Volume IV
DYEAR=2003
DGENRE=R and B
TTITLE0=I just wanna make love to you - Debbie Davies
TTITLE1=Hang on to your love - Sade
TTITLE2=Blues for Shorty Bill - Maceo Parker
TTITLE3=Every Saturday Night - Maceo Parker
TTITLE4=Splashin' - Maceo Parker
TTITLE5=Got to give it up - David Sanborn
TTITLE6=Full House - David Sanborn
TTITLE7=Savanna - David Sanborn
TTITLE8=Southern Exposure - David Sanborn
TTITLE9=Listen Here - David Sanborn
EXTD=
EXTT0=
EXTT1=
EXTT2=
EXTT3=
EXTT4=
EXTT5=
EXTT6=
EXTT7=
EXTT8=
EXTT9=
PLAYORDER=
